<?xml version="1.0" encoding="iso-8859-1"?>
<!-- Generator: Adobe Illustrator 19.0.0, SVG Export Plug-In . SVG Version: 6.00 Build 0)  -->
<svg version="1.1" id="Layer_1" xmlns="http://www.w3.org/2000/svg" xmlns:xlink="http://www.w3.org/1999/xlink" x="0px" y="0px"
	 viewBox="0 0 511.996 511.996" style="enable-background:new 0 0 511.996 511.996;" xml:space="preserve">
<path style="fill:#ED5564;" d="M298.65,4.238c-2.797-13-85.319,4.664-85.319,42.663c0,31.336,0,187.333,0,187.333h85.319V4.238z"/>
<rect x="191.998" y="149.328" style="fill:#E6E9ED;" width="128.19" height="171.67"/>
<path style="fill:#FFCE54;" d="M341.336,277.327H170.66v223.997c0,5.906,4.781,10.672,10.672,10.672h149.317
	c5.905,0,10.687-4.766,10.687-10.672V277.327z"/>
<path style="fill:#DA4453;" d="M213.37,45.596c45.89-2.195,81.999-17.187,85.28-41.358C295.885-8.614,215.237,8.503,213.37,45.596z"
	/>
<path style="fill:#F6BB42;" d="M223.854,469.324h-10.672V309.327c0-5.891-4.773-10.656-10.664-10.656s-10.664,4.766-10.664,10.656
	v170.669c0,5.891,4.773,10.672,10.664,10.672h21.336c5.891,0,10.664-4.781,10.664-10.672S229.745,469.324,223.854,469.324z"/>
<g>
</g>
<g>
</g>
<g>
</g>
<g>
</g>
<g>
</g>
<g>
</g>
<g>
</g>
<g>
</g>
<g>
</g>
<g>
</g>
<g>
</g>
<g>
</g>
<g>
</g>
<g>
</g>
<g>
</g>
</svg>
