<?xml version="1.0" encoding="utf-8"?><svg xml:space="preserve" viewBox="0 0 100 100" y="0" x="0" xmlns="http://www.w3.org/2000/svg" id="圖層_1" version="1.1" width="200px" height="200px" xmlns:xlink="http://www.w3.org/1999/xlink" style="width:100%;height:100%;background-size:initial;background-repeat-y:initial;background-repeat-x:initial;background-position-y:initial;background-position-x:initial;background-origin:initial;background-image:initial;background-color:rgb(255, 255, 255);background-clip:initial;background-attachment:initial;animation-play-state:paused" ><g class="ldl-scale" style="transform-origin:50% 50%;transform:rotate(0deg) scale(0.8, 0.8);animation-play-state:paused" ><path stroke-miterlimit="10" stroke-width="3" stroke="#333" fill="#e0e0e0" d="M65.4 14.8c-1.2-.3-2.8-.5-4.6-.7-3.1-.3-6.9-.5-10.7-.5 0 0 0 0 0 0s0 0 0 0c-3.8 0-7.6.1-10.7.5-1.8.2-3.4.4-4.6.7-1.6.3-2.2 2.4-1.2 3.7L50 40.3v0h0v0l16.5-21.8c1.1-1.3.4-3.3-1.1-3.7z" style="stroke:rgb(51, 51, 51);fill:rgb(224, 224, 224);animation-play-state:paused" ></path>
<path stroke-miterlimit="10" stroke-width="3" stroke="#333" fill="#fff" d="M73.8 14.1h-4.4c.7 1.2 1 2.8.6 4.3l-9.2 30.9c-.3 1-1.5 1.2-2.1.4l-5.3-7.1c-1.7-2.2-5-2.2-6.7 0l-5.3 7.1c-.6.8-1.8.6-2.1-.4L30 18.4c-.5-1.5-.2-3.1.6-4.3h-4.4c-5.4 0-9.7 4.3-9.7 9.7v57.8c0 5.4 4.3 9.7 9.7 9.7h47.6c5.4 0 9.7-4.3 9.7-9.7V23.8c0-5.3-4.3-9.7-9.7-9.7z" style="stroke:rgb(51, 51, 51);fill:rgb(255, 255, 255);animation-play-state:paused" ></path>
<path stroke-miterlimit="10" stroke-width="3" stroke="#333" fill="#a0c8d7" d="M69.1 10.5C64.5 9.4 57.3 8.7 50 8.7v0s0 0 0 0 0 0 0 0v0c-7.3.1-14.5.7-19.1 1.9-2.9.8-4.7 4.1-3.7 7.3l10.5 35.3c.3 1.1 1.7 1.4 2.3.5l10-13.4h0v0L33.5 18.5c-1-1.3-.4-3.4 1.2-3.7 3.4-.8 9.3-1.1 15.3-1.1 0 0 0 0 0 0s0 0 0 0c6 0 11.9.4 15.3 1.1 1.6.3 2.2 2.4 1.2 3.7L50 40.3v0h0l9.9 13.3c.7.9 2 .6 2.3-.5l10.5-35.3c1-3.1-.7-6.5-3.6-7.3z" style="stroke:rgb(51, 51, 51);fill:rgb(160, 200, 215);animation-play-state:paused" ></path>
<circle stroke-miterlimit="10" stroke-width="3" stroke="#333" fill="#e0e0e0" r="4.6" cy="60.6" cx="50" style="stroke:rgb(51, 51, 51);fill:rgb(224, 224, 224);animation-play-state:paused" ></circle>
<circle stroke-miterlimit="10" stroke-width="3" stroke="#333" fill="#e0e0e0" r="4.6" cy="77.1" cx="50" style="stroke:rgb(51, 51, 51);fill:rgb(224, 224, 224);animation-play-state:paused" ></circle>
<metadata xmlns:d="https://loading.io/stock/" style="animation-play-state:paused" ><d:name style="animation-play-state:paused" >t-shirt</d:name>


<d:tags style="animation-play-state:paused" >t-shirt,clothing,tee,wear,bodysuit,tunic,polo,hanger</d:tags>


<d:license style="animation-play-state:paused" >by</d:license>


<d:slug style="animation-play-state:paused" >uub7dl</d:slug></metadata></g><!-- generated by https://loading.io/ --></svg>