<?xml version="1.0" encoding="utf-8"?><svg xml:space="preserve" viewBox="0 0 100 100" y="0" x="0" xmlns="http://www.w3.org/2000/svg" id="Layer_1" version="1.1" width="200px" height="200px" xmlns:xlink="http://www.w3.org/1999/xlink" style="width:100%;height:100%;background-size:initial;background-repeat-y:initial;background-repeat-x:initial;background-position-y:initial;background-position-x:initial;background-origin:initial;background-image:initial;background-color:rgb(255, 255, 255);background-clip:initial;background-attachment:initial;animation-play-state:paused" ><g class="ldl-scale" style="transform-origin:50% 50%;transform:rotate(0deg) scale(0.8, 0.8);animation-play-state:paused" ><g style="animation-play-state:paused" ><path fill="#f47e5f" d="M20 46.4c0-16.6 13.4-30 30-30s30 13.4 30 30c0 8.2-3.3 15.5-8.5 21l7.1 7.1s11.5-12.9 11.5-28c0-22.1-17.9-40-40-40s-40 17.9-40 40 17.9 40 40 40v-10C33.4 76.4 20 62.9 20 46.4z" style="fill:rgb(244, 126, 95);animation-play-state:paused" ></path>
<path fill="#f7b26a" d="M50 16.4c-16.6 0-30 13.4-30 30s13.4 30 30 30V64.7c-.3.1-.6.2-1 .2-1.6 0-3-1.8-3-4s1.3-4 2.9-4c.4 0 .7.1 1 .3V45.9l7 7 1.5 1.5 1.7 1.7 1.5 1.5 2.2 2.2c.2 0 .3-.1.5-.1 1.6 0 3 1.7 3.2 3.8l3.8 3.8c5.3-5.4 8.5-12.8 8.5-21C80 29.8 66.6 16.4 50 16.4z" style="fill:rgb(247, 178, 106);animation-play-state:paused" ></path>
<ellipse fill="#849b87" ry="4.3" rx="5.8" cy="36.3" cx="33.8" transform="rotate(-13.736 33.821 36.275)" style="fill:rgb(132, 155, 135);animation-play-state:paused" ></ellipse>
<ellipse fill="#849b87" ry="2.1" rx="2.9" cy="50.3" cx="61.8" transform="rotate(-42.215 61.817 50.28)" style="fill:rgb(132, 155, 135);animation-play-state:paused" ></ellipse>
<ellipse fill="#849b87" ry="2.7" rx="3.6" cy="41.4" cx="53.8" transform="rotate(-81.425 53.789 41.434)" style="fill:rgb(132, 155, 135);animation-play-state:paused" ></ellipse>
<ellipse fill="#849b87" ry="1.8" rx="2.4" cy="41.7" cx="70" transform="rotate(-57.894 69.97 41.658)" style="fill:rgb(132, 155, 135);animation-play-state:paused" ></ellipse>
<ellipse fill="#849b87" ry="2.3" rx="3.1" cy="26.7" cx="58.8" transform="rotate(-17.973 58.753 26.652)" style="fill:rgb(132, 155, 135);animation-play-state:paused" ></ellipse>
<ellipse fill="#849b87" ry="1.8" rx="2.4" cy="32.1" cx="66.8" transform="rotate(-49.428 66.778 32.062)" style="fill:rgb(132, 155, 135);animation-play-state:paused" ></ellipse>
<ellipse fill="#849b87" ry="1.9" rx="2.6" cy="46.3" cx="32.4" transform="rotate(-21.921 32.381 46.335)" style="fill:rgb(132, 155, 135);animation-play-state:paused" ></ellipse>
<ellipse fill="#849b87" ry="2.9" rx="2.1" cy="49.9" cx="43.6" transform="rotate(-62.29 43.565 49.857)" style="fill:rgb(132, 155, 135);animation-play-state:paused" ></ellipse>
<ellipse fill="#849b87" ry="1.8" rx="2.4" cy="61.2" cx="32.4" transform="rotate(-58.594 32.39 61.213)" style="fill:rgb(132, 155, 135);animation-play-state:paused" ></ellipse>
<ellipse fill="#849b87" ry="3.2" rx="4.4" cy="29.1" cx="49" transform="rotate(-72.59 48.999 29.061)" style="fill:rgb(132, 155, 135);animation-play-state:paused" ></ellipse>
<path fill="#e15c64" d="M53.9 29.8l7.3 12.4c2.5-1.9 3.1-5.8 1.2-9-1.9-3.3-5.6-4.7-8.5-3.4z" style="fill:rgb(225, 92, 100);animation-play-state:paused" ></path>
<path fill="#e15c64" d="M29.7 61l8.6-5.5c-1.4-1.7-4.2-2-6.4-.6S28.7 59 29.7 61z" style="fill:rgb(225, 92, 100);animation-play-state:paused" ></path>
<path fill="#e15c64" d="M71.4 50.2l-8.1 6.1c1.5 1.6 4.3 1.7 6.4.1 2.2-1.6 2.9-4.3 1.7-6.2z" style="fill:rgb(225, 92, 100);animation-play-state:paused" ></path>
<path fill="#e15c64" d="M36.5 66.6L49 73.2c1.1-2.9-.4-6.4-3.7-8.2-3.2-1.7-7-.9-8.8 1.6z" style="fill:rgb(225, 92, 100);animation-play-state:paused" ></path>
<g style="animation-play-state:paused" ><path fill="#333" d="M38.3 32.1c-1.9 0-3.5-1.6-3.5-3.5s1.6-3.5 3.5-3.5 3.5 1.6 3.5 3.5-1.6 3.5-3.5 3.5zm0-5c-.8 0-1.5.7-1.5 1.5s.7 1.5 1.5 1.5 1.5-.7 1.5-1.5-.7-1.5-1.5-1.5z" style="fill:rgb(51, 51, 51);animation-play-state:paused" ></path></g>
<g style="animation-play-state:paused" ><path fill="#333" d="M36.5 50.8c-1.9 0-3.5-1.6-3.5-3.5s1.6-3.5 3.5-3.5 3.5 1.6 3.5 3.5-1.5 3.5-3.5 3.5zm0-5c-.8 0-1.5.7-1.5 1.5s.7 1.5 1.5 1.5 1.5-.7 1.5-1.5-.7-1.5-1.5-1.5z" style="fill:rgb(51, 51, 51);animation-play-state:paused" ></path></g>
<g style="animation-play-state:paused" ><path fill="#333" d="M74.6 42.2c-1.9 0-3.5-1.6-3.5-3.5s1.6-3.5 3.5-3.5 3.5 1.6 3.5 3.5-1.6 3.5-3.5 3.5zm0-5c-.8 0-1.5.7-1.5 1.5s.7 1.5 1.5 1.5 1.5-.7 1.5-1.5-.7-1.5-1.5-1.5z" style="fill:rgb(51, 51, 51);animation-play-state:paused" ></path></g>
<path fill="#849b87" d="M49 57c-1.6 0-2.9 1.8-2.9 4s1.3 4 3 4c.3 0 .7-.1 1-.2v-7.4c-.4-.3-.8-.4-1.1-.4z" style="fill:rgb(132, 155, 135);animation-play-state:paused" ></path>
<path fill="#849b87" d="M64.5 59.7c-.2 0-.4 0-.5.1l3.7 3.7c-.3-2.1-1.6-3.7-3.2-3.8z" style="fill:rgb(132, 155, 135);animation-play-state:paused" ></path>
<path fill="#333" d="M58.8 54.4c.8 0 1.5.7 1.5 1.5v.2l1.5 1.5c.3-.5.5-1.1.5-1.8 0-1.9-1.6-3.5-3.5-3.5-.6 0-1.2.2-1.8.5l1.5 1.5c.1.1.2.1.3.1z" style="fill:rgb(51, 51, 51);animation-play-state:paused" ></path></g>
<g style="animation-play-state:paused" ><path fill="#f47e5f" d="M74.5 74.6l-3.8-3.8-3.7-3.7-2.2-2.2-1.5-1.5-1.7-1.7-1.6-1.6-7-7v40.5c.7 0 1.4 0 2.1-.1h.6c.5 0 1-.1 1.5-.1.2 0 .4-.1.6-.1.5-.1 1-.1 1.4-.2.2 0 .4-.1.5-.1.5-.1 1-.2 1.4-.3.2 0 .3-.1.5-.1l1.5-.3c.1 0 .2-.1.4-.1.5-.1 1-.3 1.5-.4.1 0 .2-.1.3-.1.5-.2 1.1-.3 1.6-.5.1 0 .1-.1.2-.1.5-.2 1.1-.4 1.6-.6 0 0 .1 0 .1-.1.6-.2 1.1-.5 1.6-.8h.1c.6-.3 1.1-.6 1.7-.9 3.4-1.9 6.5-4.3 9.2-7l-6.9-7.1z" style="fill:rgb(244, 126, 95);animation-play-state:paused" ></path>
<path fill="#f7b26a" d="M70.6 70.8l-3.7-3.7-2.2-2.2-1.5-1.5-1.7-1.7-1.5-1.6-7-7v30.5c8.4 0 16-3.5 21.5-9l-3.9-3.8z" style="fill:rgb(247, 178, 106);animation-play-state:paused" ></path>
<path fill="#849b87" d="M54.9 68.2c0-1.7-.8-3.1-1.9-3.7v7.4c1.1-.5 2-2 1.9-3.7z" style="fill:rgb(132, 155, 135);animation-play-state:paused" ></path>
<path fill="#849b87" d="M64.2 71.3c0 2.4 1.4 4.4 3.2 4.4 1.8 0 3.3-1.9 3.3-4.3v-.7L67 67c-1.6.4-2.8 2.2-2.8 4.3z" style="fill:rgb(132, 155, 135);animation-play-state:paused" ></path>
<path fill="#333" d="M58.3 63.1c0 1.9 1.6 3.5 3.5 3.5 1.3 0 2.4-.7 3-1.7l-1.5-1.5c-.1.7-.7 1.3-1.5 1.3s-1.5-.7-1.5-1.5c0-.7.6-1.4 1.3-1.5L60 60.1c-1 .6-1.7 1.7-1.7 3z" style="fill:rgb(51, 51, 51);animation-play-state:paused" ></path></g>
<metadata xmlns:d="https://loading.io/stock/" style="animation-play-state:paused" ><d:name style="animation-play-state:paused" >pizza</d:name>
<d:tags style="animation-play-state:paused" >pizza,pie,pancake,food,party</d:tags>
<d:license style="animation-play-state:paused" >by</d:license>
<d:slug style="animation-play-state:paused" >tq31hh</d:slug></metadata></g><!-- generated by https://loading.io/ --></svg>