<?xml version="1.0" encoding="utf-8"?><svg xml:space="preserve" viewBox="0 0 100 100" y="0px" x="0px" xmlns:xlink="http://www.w3.org/1999/xlink" xmlns="http://www.w3.org/2000/svg" id="圖層_1" version="1.1" width="266px" height="266px" style="width:100%;height:100%;background-size:initial;background-repeat-y:initial;background-repeat-x:initial;background-position-y:initial;background-position-x:initial;background-origin:initial;background-color:initial;background-clip:initial;background-attachment:initial;animation-play-state:paused" ><g class="ldl-scale" style="transform-origin:50% 50%;transform:rotate(0deg) scale(0.78, 0.78);animation-play-state:paused" ><path d="M50,19.83c-16.66,0-30.17,13.51-30.17,30.17 S33.34,80.17,50,80.17S80.17,66.66,80.17,50S66.66,19.83,50,19.83z M50,71.12c-11.66,0-21.12-9.45-21.12-21.12S38.34,28.88,50,28.88 S71.12,38.34,71.12,50S61.66,71.12,50,71.12z" stroke-miterlimit="10" stroke-width="3.5" stroke="#000000" fill="#FCB711" style="fill:rgb(252, 183, 17);animation-play-state:paused" ></path>
<g style="animation-play-state:paused" ><polygon points="56.01,19.72 43.99,19.72 37.14,11.94 40.6,5.17 59.4,5.17 62.86,11.94" stroke-miterlimit="10" stroke-linejoin="round" stroke-linecap="round" stroke-width="3.5" stroke="#000000" fill="#A0C8D7" style="fill:rgb(160, 200, 215);animation-play-state:paused" ></polygon>
<line y2="11.94" x2="45.9" y1="11.94" x1="37.14" stroke-miterlimit="10" stroke-linejoin="round" stroke-linecap="round" stroke-width="3.5" stroke="#000000" fill="none" style="animation-play-state:paused" ></line>
<line y2="11.94" x2="54.1" y1="11.94" x1="62.86" stroke-miterlimit="10" stroke-linejoin="round" stroke-linecap="round" stroke-width="3.5" stroke="#000000" fill="none" style="animation-play-state:paused" ></line></g>
<metadata xmlns:d="https://loading.io/stock/" style="animation-play-state:paused" ><d:name style="animation-play-state:paused" >wedding</d:name>


<d:tags style="animation-play-state:paused" >wedding,ring,diamond,jewels,gem,gold</d:tags>


<d:license style="animation-play-state:paused" >by</d:license>


<d:slug style="animation-play-state:paused" >2d9hea</d:slug></metadata></g><!-- generated by https://loading.io/ --></svg>