<?xml version="1.0" encoding="utf-8"?><svg xml:space="preserve" viewBox="0 0 100 100" y="0" x="0" xmlns="http://www.w3.org/2000/svg" id="圖層_1" version="1.1" width="47px" height="47px" xmlns:xlink="http://www.w3.org/1999/xlink" style="width:100%;height:100%;background-size:initial;background-repeat-y:initial;background-repeat-x:initial;background-position-y:initial;background-position-x:initial;background-origin:initial;background-image:initial;background-color:rgb(255, 255, 255);background-clip:initial;background-attachment:initial;animation-play-state:paused" ><g class="ldl-scale" style="transform-origin:50% 50%;transform:rotate(0deg) scale(0.8, 0.8);animation-play-state:paused" ><path d="M38.6 13h22.7v73.9H38.6z" fill="#e15b64" style="fill:rgb(225, 91, 100);animation-play-state:paused" ></path>
<path d="M38.6 10.4h22.7v79.2H38.6z" fill="#e15b64" transform="rotate(-60 50 50.002)" style="fill:rgb(225, 91, 100);animation-play-state:paused" ></path>
<path d="M38.6 10.4h22.7v79.2H38.6z" fill="#e15b64" transform="rotate(-120 50 50.001)" style="fill:rgb(225, 91, 100);animation-play-state:paused" ></path>
<g style="animation-play-state:paused" ><path fill="#fff" d="M55.5 44.9l1.5-.8-1.4-1.1c-.8-.6-1.7-1.2-2.6-1.7-.5-.2-1-.4-1.4-.7-.5-.2-1-.4-1.6-.5.3.5.6.9.9 1.4.3.4.7.8 1 1.2.3.4.7.7 1.1 1-.3.2-.7.5-1 .7-.7.6-1.5 1.3-2.1 2.2 1.1-.1 2-.3 2.9-.6 1-.2 1.9-.6 2.7-1.1z" style="fill:rgb(255, 255, 255);animation-play-state:paused" ></path>
<path fill="#fff" d="M48.1 50.7c-.3-.4-.7-.7-1.1-1 .3-.2.7-.5 1-.7.7-.6 1.5-1.3 2.1-2.2-1.1.1-2 .3-2.9.6-.9.3-1.8.7-2.6 1.2l-1.6.8 1.4 1.1c.8.6 1.7 1.2 2.6 1.7.5.2 1 .4 1.4.7.5.2 1 .4 1.6.5-.3-.5-.6-.9-.9-1.4-.3-.5-.7-1-1-1.3z" style="fill:rgb(255, 255, 255);animation-play-state:paused" ></path>
<path fill="#fff" d="M55.6 56c-.8-.6-1.7-1.2-2.6-1.7-.5-.2-1-.4-1.4-.7-.5-.2-1-.4-1.6-.5.3.5.6.9.9 1.4.3.4.7.8 1 1.2.3.4.7.7 1.1 1-.3.2-.7.5-1 .7-.7.6-1.5 1.3-2.1 2.2 1.1-.1 2-.3 2.9-.6.9-.3 1.8-.7 2.6-1.2l1.5-.8-1.3-1z" style="fill:rgb(255, 255, 255);animation-play-state:paused" ></path></g>
<path fill="#fff" d="M51.8 41.5c-.3-2.1-.6-4.2-1.2-6.4.9-.3 1.6-1.1 1.6-2.2 0-1.2-1-2.3-2.3-2.3s-2.3 1-2.3 2.3c0 1 .7 1.9 1.6 2.2-.5 2.1-.9 4.2-1.2 6.4-.3 2.8-.5 5.7-.5 8.5s.2 5.7.5 8.5c.4 2.8.8 5.7 1.8 8.5.9-2.8 1.4-5.7 1.8-8.5.3-2.8.5-5.7.5-8.5.2-2.8 0-5.7-.3-8.5z" style="fill:rgb(255, 255, 255);animation-play-state:paused" ></path>
<metadata xmlns:d="https://loading.io/stock/" style="animation-play-state:paused" ><d:name style="animation-play-state:paused" >medical</d:name>
<d:tags style="animation-play-state:paused" >medical,nurse,care,hospital,doctor,cure,remedy,heal,help</d:tags>
<d:license style="animation-play-state:paused" >by</d:license>
<d:slug style="animation-play-state:paused" >b9n345</d:slug></metadata></g><!-- generated by https://loading.io/ --></svg>